<svg xmlns="http://www.w3.org/2000/svg" xmlns:xlink="http://www.w3.org/1999/xlink" width="1236.054" height="1219.486" viewBox="0 0 1236.054 1219.486">
  <defs>
    <style>
      .cls-1, .cls-3 {
        fill: url(#linear-gradient);
      }

      .cls-2, .cls-3 {
        isolation: isolate;
      }

      .cls-2 {
        clip-path: url(#clip-path);
      }

      .cls-3 {
        opacity: 0.18;
      }
    </style>
    <linearGradient id="linear-gradient" x1="0.5" x2="0.5" y2="1" gradientUnits="objectBoundingBox">
      <stop offset="0" stop-color="#e63946"/>
      <stop offset="1" stop-color="#054e80"/>
    </linearGradient>
    <clipPath id="clip-path">
      <path id="Path_1" data-name="Path 1" class="cls-1" d="M424.687,17.482C578.147,60.2,831.776,95.193,921.011,163.468c366.123,280.126,116.3,732.778-78.128,761.678-242.127,35.99-195.775,241.887-418.2,241.887S-289.95,862.306-74.074,493.284-354.3-199.376,424.687,17.482Z" transform="translate(984.368 179)"/>
    </clipPath>
  </defs>
  <g id="Mask_Group_1" data-name="Mask Group 1" class="cls-2" transform="translate(-856.769 -126.548)">
    <g id="hero_employee__monochromatic" transform="translate(995.033 351.819)">
      <path id="Path_2" data-name="Path 2" class="cls-3" d="M537.483,749.275c36.182-21.189,67.975-50.231,104.313-70.926a267.54,267.54,0,0,1,150.128-34.422c14.469,1.01,29.521,3.133,43.1-2.309,12.177-4.906,21.6-15.356,29.618-26.239,45.485-61.609,58.109-148.839,32.142-222.114-9.4-26.548-23.539-51.53-27.481-79.686-9.07-64.639,37.775-126.7,30.453-191.588-5.05-44.666-36.59-82.942-75.278-101.163S741,2.712,700.021,13.636C655.254,25.529,614.1,49.542,569.742,63.1c-83.92,25.518-173.705,12.058-260.247,23.662S128.487,148.85,111.357,239.708c-10.352,54.869,10.1,112.953-3.069,167.142C97.2,452.422,63.619,489.462,54.879,535.633,31.574,659.675,163.309,694.509,237.6,740.268,328.469,796.229,444.143,803.958,537.483,749.275Z" transform="translate(-52.154 -6.14)"/>
      <path id="Path_3" data-name="Path 3" class="cls-1" d="M525.092,449.174c.913,8.925,1.787,18.159-.738,26.8C519.887,491.14,506,500.7,492.638,507.835c-26.957,14.387-56.089,24.384-84.192,36.153-9.439,3.978-20,9.585-22.257,20.076-1.01,4.7-.136,9.749-1.709,14.243s-7.574,7.791-10.526,4.122a10,10,0,0,1-1.554-5.854l-1.224-23.992c-.408-8.018-.816-16.2,1.088-23.992s6.467-15.253,13.44-18.386c2.35-1.031,4.875-1.567,7.264-2.556,8.856-3.648,14.275-12.924,19.616-21.292,12.566-19.643,29.132-37.967,50.5-44.645a100,100,0,0,1-11.769-74.924c3.127-12.9,9.458-25.744,20.354-32.361a25.842,25.842,0,0,1,27.5.35c9.711,6.658,11.129,18.7,13.692,29.825C519.323,392.367,522.217,420.812,525.092,449.174Z" transform="translate(-21.74 46.618)"/>
      <path id="Path_4" data-name="Path 4" class="cls-1" d="M525.092,450.081c.913,8.946,1.787,18.159-.738,26.8-4.467,15.17-18.353,24.734-31.715,31.887-26.957,14.449-56.089,24.4-84.192,36.236-9.439,3.957-20,9.564-22.257,20.076-1.01,4.679-.136,9.749-1.709,14.243s-7.574,7.771-10.526,4.122a10,10,0,0,1-1.554-5.854l-1.224-23.992c-.408-8.039-.816-16.2,1.088-23.992s6.467-15.253,13.44-18.386c2.35-1.051,4.875-1.566,7.264-2.556,8.856-3.669,14.275-12.944,19.616-21.292,12.566-19.643,29.132-37.967,50.5-44.645a100.07,100.07,0,0,1-11.769-74.945c3.127-12.9,9.458-25.724,20.354-32.34a25.843,25.843,0,0,1,27.5.35c9.711,6.658,11.128,18.7,13.692,29.825C519.323,393.357,522.217,421.781,525.092,450.081Z" transform="translate(-21.74 46.783)"/>
      <path id="Path_5" data-name="Path 5" class="cls-1" d="M486.256,342.061a121.6,121.6,0,0,1-12.08,53.034c-4.137,8.513-9.3,16.634-11.653,25.827-15.984,60.7-80.832,94.4-129.23,132.8-19.655,15.583-41.232,31.412-50.03,55.322-1.185,3.257-2.389,6.926-5.38,8.554-4.292,2.309-9.711-1.463-11.245-6.184s-.194-9.873,1.107-14.7l6.914-25.7a20.654,20.654,0,0,1,3.457-8.08,27.029,27.029,0,0,1,6.972-5.009c17.829-11.007,23.442-34.236,32.725-53.364A120.161,120.161,0,0,1,365.222,453.3c5.36-3.112,11.109-5.895,15.226-10.615s6.409-11.543,8.448-17.871q10.244-31.656,23.481-62.083c3.515-8.1,23.83-45.346,29.773-51.839C457.4,294.3,471.5,324.974,486.256,342.061Z" transform="translate(-31.749 42.633)"/>
      <path id="Path_6" data-name="Path 6" class="cls-1" d="M565.276,205.694c0,2.618-.175,5.318-.175,8.039,0,8.719-.777,18.324-6.6,24.466-4.448,4.679-10.9,6.307-16.838,8.368-43.038,14.923-70.539,59.012-108.644,84.942-8.079,5.483-17.479,10.306-26.821,9.172a20.665,20.665,0,0,1-3.36-.66c-6.137-1.69-11.284-6.039-17.149-8.533-11.653-4.926-24.762-2.185-36.493,2.267s-23.092,10.512-35.444,12.367S287.3,344.474,280.4,333.447c-3.729-6.019-4.855-13.418-7.769-19.911-10.643-23.436-41.251-29.186-54.768-50.747-.233-.371-.486-.763-.7-1.154a40.5,40.5,0,0,1-4.428-11.213,30.758,30.758,0,0,1-.66-3.236,46.006,46.006,0,0,1,2.233-23.312l.35-.969a45.711,45.711,0,0,1,27.345-26.053c16.877-5.627,35.095-.68,52.787-1.031,18.528-.371,37.076-6.616,55.312-3.236,14.217,2.618,27.19,10.9,40.2,17.706,10.818,5.627,21.752,10.306,33.677,9.894,10.6-.309,20.723-4.679,30.259-9.667,17.479-9.11,34.085-20.488,52.438-27.661,13.731-5.38,28.977-8.245,43.523-5.5C565.626,180.362,565.645,191.884,565.276,205.694Z" transform="translate(-36.948 21.525)"/>
      <path id="Path_7" data-name="Path 7" class="cls-1" d="M538.578,224.708c-4.059,5.071-10.332,7.317-16.1,9.914-25.772,11.646-31.56,46.6-50.748,68.8-11.828,13.666-49.971,30.176-50.5,25.765-.8-6.081-9.711,7.3-15.09,9.461a20.668,20.668,0,0,1-3.36-.66c-6.137-1.69-11.284-6.039-17.149-8.533-11.653-4.926-24.762-2.185-36.493,2.267S326.05,342.238,313.7,344.093s-26.452-1.649-33.347-12.676c-3.729-6.019-4.855-13.418-7.769-19.911-7.069-15.6-22.995-23.353-36.9-33.165a62.87,62.87,0,0,1-17.926-17.582c-.233-.371-.486-.763-.7-1.154a40.5,40.5,0,0,1-4.428-11.213,44.738,44.738,0,0,1,15.77-11.646c16.353-7.194,34.959-3.937,52.438-5.936,18.431-2.061,36.4-9.976,54.846-8.245,26.258,2.391,49.68,23.91,75.744,20.715,10.565-1.3,20.276-6.6,29.365-12.367,16.722-10.677,32.278-23.539,49.933-32.381,13.226-6.6,28.18-10.924,42.921-9.461a20.455,20.455,0,0,1,8.914,2.762c.155,2.6.253,5.3.485,8C543.88,208.4,543.88,218.051,538.578,224.708Z" transform="translate(-36.839 23.555)"/>
      <path id="Path_8" data-name="Path 8" class="cls-1" d="M484.6,276.881c-11.828,13.666-46.3,37.823-59.973,48.994-4.583,3.772-15.129,3.4-20.528,5.565a20.668,20.668,0,0,1-3.36-.66c-6.137-1.69-11.284-6.039-17.149-8.533-11.653-4.926-24.762-2.185-36.493,2.267s-23.092,10.512-35.444,12.367-26.452-1.649-33.347-12.676c-3.729-6.019-4.855-13.418-7.769-19.911-7.069-15.6-22.995-23.353-36.9-33.165a7.256,7.256,0,0,1,8.254-.783c13.712,9.935,32.259,6.637,47.893.721s31.249-14.14,47.8-12.985c18.645,1.278,34.764,14.3,53,18.8a59.953,59.953,0,0,0,39.814-4.122c6.817-3.215,37.017-33.783,43.038-29.125,2.214,1.711,25.248-12.944,26.005-10.141C500.022,235.657,484.6,274.7,484.6,276.881Z" transform="translate(-34.834 30.766)"/>
      <path id="Path_9" data-name="Path 9" class="cls-1" d="M683.605,116.145a9.387,9.387,0,0,1,1.554,9.77,26.621,26.621,0,0,1-5.826,8.41c-20.218,21.993-47.66,42.213-67.839,64.185-10.565,11.522-12.973,13.748-24.16,24.611-7.322,7.111-14.935,14-21.014,22.323-5.535,7.626-10.507,27.331-14.585,35.927l-20.451,43.285c-6.992,14.758-14.022,29.6-23.306,42.852A18.973,18.973,0,0,1,501.549,374a19.871,19.871,0,0,1-8.079,1.566c-14.294.866-28.938,3.38-42.727-.8s-26.394-17.912-24.024-32.979a46.845,46.845,0,0,1,5.826-14.428l24.723-46.274c7.458-13.934,14.9-27.867,22.607-41.657,6.04-10.78,12.41-21.684,21.519-29.681,8.041-7.07,17.771-11.5,27.365-15.851,20.334-9.234,40.785-17.417,59.585-29.784A459.024,459.024,0,0,1,647.987,130.8Q665.5,122.7,683.605,116.145Z" transform="translate(-16.434 11.745)"/>
      <path id="Path_10" data-name="Path 10" class="cls-1" d="M574.509,192.891c2.525-2.535,2.933-6.575,4.506-9.852,2.233-4.658,6.681-7.523,10.837-10.306A200.652,200.652,0,0,0,633.143,132.7c-17.926,4.844-33.638,16.036-48.942,27.043l-25.539,18.345c-10.138,7.3-20.431,14.717-28.239,24.734a5.72,5.72,0,0,0-1.34,2.638c-.33,2.494,2.214,4.122,4.1,5.689,8,6.616,13.925,10.553,17.984-1.731,1.69-5.132,3.515-8.245,8.312-10.883S570.683,196.725,574.509,192.891Z" transform="translate(-6.64 14.437)"/>
      <path id="Path_11" data-name="Path 11" class="cls-1" d="M534.341,217.666a28.279,28.279,0,0,1,7.205,3.957,16.45,16.45,0,0,0,3.379,2.061,4.58,4.58,0,0,0,3.787,0,1.436,1.436,0,0,0,.6-.6,1.767,1.767,0,0,0,0-1.134,86.123,86.123,0,0,0-5.826-14.1,5.1,5.1,0,0,0-1.049-1.5,4.5,4.5,0,0,0-2.447-.825,27.722,27.722,0,0,0-7.594.186,6.808,6.808,0,0,0-3.884,1.834,7.225,7.225,0,0,0-1.5,3.38,16.524,16.524,0,0,0-.408,6.534c1.2,0,2.505-.557,3.787-.557a13.56,13.56,0,0,1,3.943.763Z" transform="translate(-6.888 26.248)"/>
      <path id="Path_12" data-name="Path 12" class="cls-1" d="M510.307,199.307a45.2,45.2,0,0,0-3.01,16.49,26.983,26.983,0,0,0,1.5,12.161,1.708,1.708,0,0,0,.524.763,1.839,1.839,0,0,0,1.3.124,18.459,18.459,0,0,1,7.283.412.8.8,0,0,1,.427.227.935.935,0,0,1,.214.515l.893,4.906c3.418,18.551-2.7,39.534-16.936,50.932a80.362,80.362,0,0,1-15.323,8.6c-9.361,4.6-18.528,10.306-25.423,18.365s-11.362,19.169-10.06,30.052a108.642,108.642,0,0,0,33.774-28.506c6.623-8.43,12.177-17.974,20.159-24.94,4.719-4.122,10.235-7.276,14.294-12.14,7.769-9.275,8.72-22.673,9.3-35.04.8-17.314.447-37.452-12.352-48.191C515.57,194.875,511.006,197.72,510.307,199.307Z" transform="translate(-14.044 24.408)"/>
      <path id="Path_13" data-name="Path 13" class="cls-1" d="M679.858,97.126c3.573-1.237,7.769-1.731,10.837.557a12.488,12.488,0,0,1,3.884,5.833c1.942,5.318,2.175,11.893-1.243,16.325a21.489,21.489,0,0,1-8.2,5.689,92.964,92.964,0,0,1-19.849,7.791c-4.156.948-10.488,1.175-12.682-3.751-1.942-4.37,2.175-9.193,4.428-12.511C662.883,108.524,670.205,100.527,679.858,97.126Z" transform="translate(5.104 8.483)"/>
      <path id="Path_14" data-name="Path 14" class="cls-1" d="M419.247,239.483c-11.167,6.6-22.607,14.037-29.016,25.744-5.982,10.924-6.778,24.157-6.564,36.792a193.841,193.841,0,0,0,4.719,41.368c.35,1.5.932,3.215,2.311,3.689a4.031,4.031,0,0,0,2.991-.6,35.66,35.66,0,0,0,17.887-23.374c.835-3.607,1.146-7.317,1.767-10.945a126.216,126.216,0,0,1,7.167-23.415,31.811,31.811,0,0,1,4.816-9.378,28.514,28.514,0,0,1,7.9-5.895q24.18-14.037,48.825-27.208a86.182,86.182,0,0,0,17.227-11.027,30.213,30.213,0,0,0,10.332-17.85c.99-6.987,5.962-22.673-2.544-22.1s-25.947,8.451-33.619,12C454.458,216.151,437.27,228.786,419.247,239.483Z" transform="translate(-20.518 24.61)"/>
      <path id="Path_15" data-name="Path 15" class="cls-1" d="M511.363,207.877c-.563,3.525-1.418,7.111-1.748,9.605a30.3,30.3,0,0,1-10.332,17.829,86.18,86.18,0,0,1-17.227,11.027q-24.607,13.171-48.826,27.208a28.806,28.806,0,0,0-7.9,5.9,30.677,30.677,0,0,0-4.816,9.378,126.71,126.71,0,0,0-7.166,23.415c-.622,3.628-.932,7.338-1.787,10.945a35.929,35.929,0,0,1-17.868,23.374,3.9,3.9,0,0,1-2.991.577c-1.379-.453-1.942-2.185-2.292-3.669a194.012,194.012,0,0,1-4.739-41.451c-.233-12.656.583-25.847,6.564-36.792,6.428-11.728,17.868-19.169,29-25.744,18.1-10.7,35.23-23.333,54.225-32.113,7.769-3.525,25.248-11.357,33.618-12.017C512.567,194.973,512.45,201.363,511.363,207.877Z" transform="translate(-20.518 24.619)"/>
      <path id="Path_16" data-name="Path 16" class="cls-1" d="M490.893,200.045a103.343,103.343,0,0,0,14.527,12.718,27,27,0,0,0,17.848,5.174c1.107-.144,2.428-.557,2.7-1.711s-.777-2.247-1.67-3.009c-4.855-4.122-8.8-10.162-8.837-16.778,0-3.174.8-6.575-.68-9.337-1.942-3.442-6.293-3.978-10.041-3.793a67.917,67.917,0,0,0-11.167,1.484c-3.107.68-28.161,12.491-25.015,13.315C469.082,198.252,481.163,190.5,490.893,200.045Z" transform="translate(-12.439 22.66)"/>
      <path id="Path_17" data-name="Path 17" class="cls-1" d="M490.193,192.174a12.433,12.433,0,0,1-3.4-1.814,3.669,3.669,0,0,1-1.359-3.525,4.311,4.311,0,0,1,1.107-1.876c3.729-4.122,9.322-5.709,14.644-6.781,7.672-1.546,16.12-2.37,22.84,1.834.855.536,1.767,1.381,1.612,2.432a2.7,2.7,0,0,1-.913,1.463c-2.816,2.8-6.176,4.823-9.128,7.441s-4.292,6.864-7.108,9.481C503.186,205.757,495.418,194.421,490.193,192.174Z" transform="translate(-10.807 21.627)"/>
      <path id="Path_18" data-name="Path 18" class="cls-1" d="M509.714,206.122c-.563,3.525-1.418,7.111-1.748,9.605a30.3,30.3,0,0,1-10.332,17.829,86.18,86.18,0,0,1-17.227,11.027q-24.607,13.171-48.826,27.208a28.807,28.807,0,0,0-7.9,5.9,30.677,30.677,0,0,0-4.816,9.378,126.709,126.709,0,0,0-7.166,23.415c-.622,3.628-.932,7.338-1.787,10.945a36.116,36.116,0,0,1-7.031,14.428,215.68,215.68,0,0,1-1.942-26.981c-.214-12.635.583-25.868,6.564-36.792,6.409-11.708,17.848-19.148,29.016-25.765,18.1-10.677,35.211-23.312,54.205-32.072C495.012,212.161,502.509,208.781,509.714,206.122Z" transform="translate(-18.87 26.374)"/>
      <path id="Path_19" data-name="Path 19" class="cls-1" d="M370.978,346.032A28.366,28.366,0,0,1,393.255,334.2a24.2,24.2,0,0,1,11.828,1.175,16.821,16.821,0,0,1,9.711,15.438,10.475,10.475,0,0,1-1.942,6.307,5.249,5.249,0,0,1-5.671,2.061,1.988,1.988,0,0,1-1.34-1.278,2.423,2.423,0,0,1,0-1.113,17.95,17.95,0,0,0-.6-9.461,9.618,9.618,0,0,0-6.506-6.184,23.272,23.272,0,0,0-7.982.721c-3.884,1.257-10.546,4.122-12.818,7.606s-2.447,9.42-5.924,12.037c-2.35,1.752-6.118,2.948-7.769-.866S368.725,348.732,370.978,346.032Z" transform="translate(-22.396 47.154)"/>
      <path id="Path_20" data-name="Path 20" class="cls-1" d="M549.5,214.806c.194.907.272,2.061-.427,2.576a1.975,1.975,0,0,1-2.1,0c-3.263-1.587-5.555-5.194-9.07-6a37.7,37.7,0,0,0-6.467,0c-2.156-.124-4.622-1.525-4.681-3.813,0-1.793,1.36-3.195,2.641-4.37,2.292-2.061,4.389-4.39,6.6-6.555,2.758-2.68,3.282-2.762,5.574.536a51.363,51.363,0,0,1,7.924,17.623Z" transform="translate(-6.859 24.512)"/>
      <path id="Path_21" data-name="Path 21" class="cls-1" d="M517.426,211.18a1.756,1.756,0,0,0-.777.6,1.715,1.715,0,0,0-.155.948,13.654,13.654,0,0,0,2.641,7.049c1.418,2.061,3.088,3.957,4.389,6.184a13.354,13.354,0,0,0,7.031-11.4,7.19,7.19,0,0,0-1.515-5.091C526.088,206.172,520.4,209.655,517.426,211.18Z" transform="translate(-7.84 26.695)"/>
      <path id="Path_22" data-name="Path 22" class="cls-1" d="M526.859,248.242a33.693,33.693,0,0,1-8.157,19.313,34.075,34.075,0,0,1-12.294,7.791c-9.381,3.813-19.421,5.421-29.132,7.894s-19.616,5.957-27.307,12.841c-10.313,9.255-15.537,23.456-18.489,37.411l17.3-2.061a7.044,7.044,0,0,0,2.952-.8,7.888,7.888,0,0,0,2.389-3.051c6.2-11.233,14.119-21.663,24.374-28.857,9.5-6.6,20.567-10.12,30.725-15.459s20.023-13.357,23.4-24.858a52.453,52.453,0,0,0,1.709-13.5c.155-6.039,0-12.1-.33-18.138a28.26,28.26,0,0,0-2.641-11.954c-2.292,5.193-5.108,9.563-4.584,15.334A88.235,88.235,0,0,1,526.859,248.242Z" transform="translate(-15.952 27.786)"/>
      <path id="Path_23" data-name="Path 23" class="cls-1" d="M394.494,315.374a15.535,15.535,0,0,0-5.38,7.5c-2.855,6.41-5.826,13.357-4.739,20.365a10.206,10.206,0,0,0,2.078,5.091,7.991,7.991,0,0,0,6.953,2.35,20.556,20.556,0,0,0,7.108-2.618c4.234-2.247,8.662-5.174,10.216-9.914,1.321-4.122.194-8.533-.913-12.676-.738-2.7-1.942-10.636-4.409-12.079C403.389,312.282,396.436,314.24,394.494,315.374Z" transform="translate(-20.469 43.761)"/>
      <path id="Path_24" data-name="Path 24" class="cls-1" d="M443.837,348.725a9.923,9.923,0,0,1,4.389.577,8.325,8.325,0,0,1,3.2,3.051,26.629,26.629,0,0,1,3.884,16.49,80.045,80.045,0,0,1-3.5,16.9l-11.653,41.224a27.5,27.5,0,0,1-5.127,11.213c-4.409,4.864-11.439,5.442-17.79,5.606-26.452.721-52.923-.515-79.337-2.061a55.479,55.479,0,0,1-18.45-3.257c-3.5-1.484-6.953-4.122-7.963-7.874a15.731,15.731,0,0,1-.175-5.565,143.055,143.055,0,0,1,3.146-16.922c2.952-12.924,5.943-25.971,11.3-38.008a29.066,29.066,0,0,1,6.933-10.471,22.72,22.72,0,0,1,6.39-3.751c11.07-4.514,22.878-1.628,34.4-2.8q22.645-2.309,45.33-3.4Q431.272,348.952,443.837,348.725Z" transform="translate(-27.435 49.552)"/>
      <path id="Path_25" data-name="Path 25" class="cls-1" d="M441.248,349.044a10.144,10.144,0,0,1,4.389.577,8.381,8.381,0,0,1,3.224,3.051,26.78,26.78,0,0,1,3.884,16.49,80.089,80.089,0,0,1-3.515,16.9l-11.653,41.224A27.5,27.5,0,0,1,432.45,438.5c-4.409,4.864-11.439,5.441-17.79,5.627-26.452.7-52.9-.536-79.337-2.061a55.479,55.479,0,0,1-18.45-3.257c-3.476-1.484-6.953-4.122-7.963-7.874a15.733,15.733,0,0,1-.155-5.565,143.782,143.782,0,0,1,3.127-16.922c2.952-12.924,5.943-25.971,11.3-38.008a29.232,29.232,0,0,1,6.934-10.471,22.177,22.177,0,0,1,6.39-3.731c11.07-4.535,22.878-1.649,34.415-2.824q22.607-2.308,45.31-3.4Q428.682,349.312,441.248,349.044Z" transform="translate(-27.681 49.604)"/>
      <path id="Path_26" data-name="Path 26" class="cls-1" d="M531.584,175.54a6.942,6.942,0,0,0,1.379-2.473,7.1,7.1,0,0,0,0-2.638c-.855-5.586-2.583-11.11-2.234-16.778a24.617,24.617,0,0,1,7.3-15.809,26.9,26.9,0,0,1,15.168-7.3,15.679,15.679,0,0,1,10.7,1.814c4.312,2.824,6.293,8.245,7.438,13.521s1.845,10.759,4.622,15.232c.757,1.216,1.729,2.618,1.321,4.122a6.876,6.876,0,0,1-1.01,1.711c-2.952,4.576.563,11.584-2.447,16.118a8.649,8.649,0,0,1-2.855,2.535c-4.778,2.762-10.585,2.37-15.77,4.122a29.7,29.7,0,0,0-12.7,9.5c-3.5,4.122-6.37,8.843-9.536,13.274a11.418,11.418,0,0,1-12.08,5.854,5.559,5.559,0,0,1-4.395-.993,6.231,6.231,0,0,1-2.422-4.016,32.519,32.519,0,0,1-2.059-9.564c-.155-6.493,3.457-8.719,7.147-12.986Q525.641,183.331,531.584,175.54Z" transform="translate(-8.267 14.042)"/>
      <path id="Path_27" data-name="Path 27" class="cls-1" d="M559.76,122.546a19.691,19.691,0,0,0-13.207-1.876,22.29,22.29,0,0,0-7.769,2.35c-6.875,3.751-10.352,12.223-16.838,16.675-2.35,1.628-5.108,2.721-6.953,4.947a9.384,9.384,0,0,0-1.942,7.915,8.529,8.529,0,0,1,.505,3.38,8.149,8.149,0,0,1-1.942,3.195,9.761,9.761,0,0,0-.311,10.821c2.68,4.122,7.982,5.174,11.129,8.8,1.612,1.855,2.913,4.493,5.283,4.8a6.111,6.111,0,0,0,4.389-1.917c3.243-2.721,6.234-6.41,6.487-10.8a39.23,39.23,0,0,1,0-4.535,4.489,4.489,0,0,1,2.039-3.751,4.108,4.108,0,0,1,4.486,1.216c1.2,1.175,2.059,2.7,3.243,3.9a.518.518,0,0,0,.35.206.5.5,0,0,0,.35-.186,5.534,5.534,0,0,0,.777-5.462,22.19,22.19,0,0,1-1.515-5.606,9.171,9.171,0,0,1,3.224-6.6c1.806-1.69,3.884-2.968,5.826-4.638,3.03-2.762,6.875-7.853,7.769-12.1S563.119,124.607,559.76,122.546Z" transform="translate(-8.476 12.414)"/>
      <path id="Path_28" data-name="Path 28" class="cls-1" d="M521.537,206.64c1.476,1.525,3.321,3.648,2.272,5.545s-3.2,1.381-5.011,1.2a9.857,9.857,0,0,0-7.924,2.35c-2.777,2.762-3.34,7.668-6.642,9.708a96.678,96.678,0,0,1,.155-30.3,22.992,22.992,0,0,1,1.088-4.432,23.485,23.485,0,0,1,4.506-6.555,7.807,7.807,0,0,1,8.876-.68s-4.35,6.843-4.1,8.987A25.028,25.028,0,0,0,521.537,206.64Z" transform="translate(-9.115 22.517)"/>
      <path id="Path_29" data-name="Path 29" class="cls-1" d="M393.5,216.81c0,5.153-6.1,8.1-10.876,7.09s-8.74-4.37-13.109-6.6c-14.372-7.3-31.23-1.422-47.136-1.257-19.421.227-38.416-8.389-57.915-8.018a65.245,65.245,0,0,0-37.988,13.356,17.728,17.728,0,0,0-3.263,2.535c-.524.618-5.826,11.13-11.148,21.107a46.006,46.006,0,0,1,2.233-23.312l.35-.969a45.705,45.705,0,0,1,27.365-26.033c16.877-5.627,35.095-.68,52.787-1.031,18.528-.371,37.076-6.616,55.312-3.236,14.217,2.618,27.19,10.9,40.2,17.706.7,1.3,1.321,2.618,1.942,3.957A11.74,11.74,0,0,1,393.5,216.81Z" transform="translate(-36.95 23.663)"/>
    </g>
  </g>
</svg>
